<?xml version="1.0" standalone="no"?>
<!DOCTYPE svg PUBLIC "-//W3C//DTD SVG 20010904//EN"
 "http://www.w3.org/TR/2001/REC-SVG-20010904/DTD/svg10.dtd">
<svg version="1.0" xmlns="http://www.w3.org/2000/svg"
 width="50.000000pt" height="50.000000pt" viewBox="0 0 50.000000 50.000000"
 preserveAspectRatio="xMidYMid meet">

<g transform="translate(0.000000,50.000000) scale(0.100000,-0.100000)"
fill="#000000" stroke="none">
<path d="M180 451 c-98 -32 -160 -107 -160 -193 0 -41 35 -112 68 -138 25 -20
25 -21 9 -56 -9 -19 -17 -37 -17 -41 0 -10 63 7 89 24 16 10 42 16 67 14 161
-10 284 134 229 267 -20 48 -50 79 -100 104 -43 22 -144 33 -185 19z m50 -170
c0 -38 -6 -56 -24 -78 -30 -35 -46 -23 -23 16 21 36 21 41 2 41 -10 0 -15 11
-15 35 0 32 2 35 30 35 29 0 30 -1 30 -49z m100 0 c0 -38 -6 -56 -24 -78 -30
-35 -46 -23 -23 16 21 36 21 41 2 41 -10 0 -15 11 -15 35 0 32 2 35 30 35 29
0 30 -1 30 -49z"/>
</g>
</svg>
