<?xml version="1.0" standalone="no"?>
<!DOCTYPE svg PUBLIC "-//W3C//DTD SVG 20010904//EN"
 "http://www.w3.org/TR/2001/REC-SVG-20010904/DTD/svg10.dtd">
<svg version="1.0" xmlns="http://www.w3.org/2000/svg"
 width="100.000000pt" height="100.000000pt" viewBox="0 0 100.000000 100.000000"
 preserveAspectRatio="xMidYMid meet">

<g transform="translate(0.000000,100.000000) scale(0.100000,-0.100000)"
fill="#000000" stroke="none">
<path d="M675 887 c-96 -24 -280 -80 -320 -97 -24 -10 -48 -28 -54 -39 -6 -11
-11 -81 -11 -164 l0 -144 -40 -6 c-105 -14 -166 -139 -103 -210 49 -54 129
-54 194 0 50 42 59 77 59 222 l0 130 83 25 c66 21 174 46 193 46 2 0 4 -31 4
-70 l0 -70 -36 0 c-70 0 -144 -74 -144 -145 0 -34 25 -82 50 -95 16 -9 20 -21
20 -63 0 -120 110 -191 224 -143 62 26 112 119 87 163 -9 15 -10 13 -11 -17
-1 -122 -166 -182 -244 -89 -37 43 -42 88 -18 143 23 51 69 85 117 87 30 2 30
2 -5 9 -30 6 -31 8 -10 10 14 1 31 1 39 0 8 -1 18 4 22 12 5 7 9 121 9 252 0
216 -2 240 -17 252 -21 15 -32 15 -88 1z m92 -89 c-2 -13 -4 -3 -4 22 0 25 2
35 4 23 2 -13 2 -33 0 -45z m-87 -108 c-8 -5 -22 -9 -30 -9 -10 0 -8 3 5 9 27
12 43 12 25 0z m77 -237 c-3 -10 -5 -4 -5 12 0 17 2 24 5 18 2 -7 2 -21 0 -30z
m-449 -219 c-9 -9 -37 -18 -64 -20 l-49 -3 49 9 c27 5 54 14 59 19 6 6 13 11
16 11 3 0 -2 -7 -11 -16z"/>
</g>
</svg>
