<?xml version="1.0" standalone="no"?>
<!DOCTYPE svg PUBLIC "-//W3C//DTD SVG 20010904//EN"
 "http://www.w3.org/TR/2001/REC-SVG-20010904/DTD/svg10.dtd">
<svg version="1.0" xmlns="http://www.w3.org/2000/svg"
 width="50.000000pt" height="50.000000pt" viewBox="0 0 50.000000 50.000000"
 preserveAspectRatio="xMidYMid meet">

<g transform="translate(0.000000,50.000000) scale(0.100000,-0.100000)"
fill="#000000" stroke="none">
<path d="M109 454 c-43 -31 -90 -94 -82 -107 4 -6 13 -1 22 14 20 31 59 70 90
90 14 9 20 18 14 22 -5 3 -25 -5 -44 -19z"/>
<path d="M165 441 c-168 -78 -164 -314 7 -385 132 -56 288 50 288 194 0 149
-161 253 -295 191z m95 -111 c0 -63 3 -72 31 -105 18 -20 29 -38 26 -42 -7 -7
-82 57 -81 69 1 4 2 40 3 78 1 92 21 92 21 0z"/>
<path d="M437 121 c-14 -21 -42 -48 -61 -61 -20 -12 -34 -26 -30 -31 6 -10 13
-7 56 25 34 24 81 93 69 100 -5 3 -20 -12 -34 -33z"/>
</g>
</svg>
